<svg xmlns="http://www.w3.org/2000/svg" width="72" height="72" viewBox="0 0 72 72"><g fill="none" fill-rule="evenodd"><path stroke="#879CB2" stroke-linecap="round" stroke-width="2.16" d="M47.886 15.41c-11.37-6.565-25.91-2.67-32.475 8.703-6.567 11.37-2.67 25.91 8.7 32.477 11.373 6.564 25.914 2.667 32.478-8.703 6.567-11.372 2.67-25.913-8.703-32.477z"/><path fill="#879CB2" d="M20.25 36c0-2.806.745-5.437 2.038-7.717l-1.9-1.209A17.875 17.875 0 0 0 18.002 36c0 3.93 1.242 7.665 3.597 10.797a1.12 1.12 0 0 0 1.575.225c.498-.372.597-1.08.222-1.575A15.617 15.617 0 0 1 20.25 36"/><path stroke="#879CB2" stroke-linecap="round" stroke-width="2.16" d="M37.688 38.923a3.375 3.375 0 1 1-3.375-5.845 3.375 3.375 0 0 1 3.375 5.845z"/><path fill="#879CB2" d="M19.026 25.552c-.276-.14-.612-.063-.768.204-.156.27-.054.6.207.768 9.201 6.024 14.166 9.27 14.166 9.27l1.527-2.622s-4.575-2.307-15.132-7.62"/><path fill="#879CB2" d="M36 18c-5.402 0-10.238 2.408-13.541 6.188l2.097 1.053C27.43 22.187 31.483 20.25 36 20.25c8.685 0 15.75 7.065 15.75 15.75a15.6 15.6 0 0 1-3.147 9.447 1.121 1.121 0 0 0 .222 1.575c.204.156.44.228.678.228.339 0 .678-.159.897-.45A17.846 17.846 0 0 0 54 36c0-9.924-8.073-18-18-18"/></g></svg>